<?xml version="1.0" encoding="utf-8"?>
<!-- Generator: Adobe Illustrator 21.1.0, SVG Export Plug-In . SVG Version: 6.00 Build 0)  -->
<svg version="1.1" id="Calque_1" xmlns="http://www.w3.org/2000/svg" xmlns:xlink="http://www.w3.org/1999/xlink" x="0px" y="0px"
	 viewBox="0 0 432 432" style="enable-background:new 0 0 432 432;" xml:space="preserve">
<style type="text/css">
	.st0{fill:#EFC9AF;}
	.st1{fill:#C69C6C;}
	.st2{fill:#020203;}
	.st3{fill:#603914;}
	.st4{fill:#C1292E;}
	.st5{fill:#A67D52;}
	.st6{fill:#343434;}
	.st7{fill:#C7B29A;}
	.st8{fill:#754D24;}
	.st9{fill:#412413;}
	.st10{fill:#1B1B1B;}
	.st11{fill:#9E1460;}
	.st12{fill:#E7267A;}
	.st13{fill:#998675;}
	.st14{fill:#676767;}
	.st15{fill:#BEC1A5;}
	.st16{fill:#8D7968;}
	.st17{fill:#A6A184;}
	.st18{fill:#5B4841;}
	.st19{fill:#C1A07F;}
	.st20{fill:#72403F;}
	.st21{fill:#AA8767;}
	.st22{fill:#D6B394;}
	.st23{fill:#A34F4D;}
	.st24{fill:#B47B61;}
	.st25{fill:#E5C292;}
	.st26{fill:#B4AFA8;}
	.st27{fill:#9E9A98;}
	.st28{fill:#F39323;}
	.st29{fill:#F9B03D;}
	.st30{fill:#50B162;}
	.st31{fill:#106B40;}
	.st32{fill:#8C633A;}
	.st33{fill:#231F20;}
	.st34{fill:#2C2F32;}
	.st35{fill:#E52328;}
	.st36{fill:#C2C3C3;}
	.st37{fill:#2DABE3;}
	.st38{fill:#F9EA31;}
	.st39{fill:#E52629;}
	.st40{fill:#746458;}
	.st41{fill:#0D71B9;}
	.st42{fill:#E52521;}
	.st43{fill:#F6D9A7;}
	.st44{fill:#F4A5A6;}
	.st45{fill:#6E6F70;}
	.st46{fill:#929497;}
	.st47{fill:#F29A26;}
	.st48{fill:#E0C399;}
	.st49{fill:#F9CBCC;}
	.st50{fill:#EBDA8C;}
	.st51{fill:#30358C;}
	.st52{fill:#F6DEB8;}
	.st53{fill:#FFFFFF;}
	.st54{fill:#959FA1;}
	.st55{fill:#6A737A;}
	.st56{fill:#6CC0A9;}
	.st57{fill:#2C7179;}
	.st58{fill:#F2F2F2;}
	.st59{fill:#D83747;}
	.st60{fill:#C92C3F;}
	.st61{fill:#E67525;}
	.st62{fill:#FFD471;}
	.st63{fill:#F0832C;}
	.st64{fill:#90CDBC;}
	.st65{fill:#1E1B3C;}
	.st66{fill:#3C3C3B;}
	.st67{fill:#E94E1B;}
	.st68{fill:#BE1622;}
	.st69{fill:#665F4A;}
	.st70{fill:#3A3320;}
	.st71{fill:#13110C;}
	.st72{fill:#EDECED;}
	.st73{fill:#24211E;}
	.st74{fill:#DBD9DA;}
	.st75{fill:#D01419;}
	.st76{fill:#E1E0E0;}
	.st77{fill:#ECECEC;}
	.st78{fill:#F8F8F9;}
	.st79{fill:#6A6621;}
	.st80{fill:#89454C;}
	.st81{fill:#CBC135;}
	.st82{fill:#F8C8CB;}
	.st83{fill:#C45853;}
	.st84{fill:#729BA5;}
	.st85{fill:#F8AB00;}
	.st86{fill:#3B3835;}
	.st87{fill:#FAD3D7;}
	.st88{fill:#ECBABB;}
	.st89{fill:#F8CFB4;}
	.st90{fill:#844C16;}
	.st91{fill:#D49F61;}
	.st92{fill:#55514F;}
	.st93{fill:#B57D44;}
	.st94{fill:#FCE1E4;}
	.st95{fill:#D5D4D4;}
	.st96{fill:#B92932;}
	.st97{fill:#97C01E;}
	.st98{fill:#00AED3;}
	.st99{fill:#FFCE00;}
	.st100{fill:#E30613;}
	.st101{fill:#F28E36;}
	.st102{fill:#9B6228;}
	.st103{fill:#F6A753;}
	.st104{fill:#CB3749;}
	.st105{fill:#E4E1E1;}
	.st106{fill:#FDEA00;}
	.st107{fill:#53BFCC;}
	.st108{fill:#C2171F;}
	.st109{fill:#EA5139;}
	.st110{fill:#0098B0;}
	.st111{fill:#F28B00;}
	.st112{fill:#898584;}
	.st113{fill:#FAB84F;}
	.st114{fill:#E74310;}
	.st115{fill:#CC5E16;}
	.st116{fill:#00A33A;}
	.st117{fill:#F18600;}
	.st118{fill:#2C2523;}
	.st119{fill:#006633;}
	.st120{fill:#063141;}
	.st121{fill:#1488A9;}
	.st122{fill:#5CBCB8;}
	.st123{fill:#00472A;}
	.st124{fill:#ECC876;}
	.st125{fill:#EBA700;}
	.st126{fill:#F4E3BC;}
	.st127{fill:#BEBBBB;}
	.st128{fill:#A29F9D;}
	.st129{fill:#72C4BE;}
	.st130{fill:#DACCA3;}
	.st131{fill:#AAC5DD;}
	.st132{fill:#1B6DA2;}
	.st133{fill:#F9B233;}
	.st134{fill:#F39200;}
	.st135{fill:#5E5957;}
	.st136{fill:#BACFDD;}
	.st137{fill:#DBC6AF;}
	.st138{fill:#B17F4A;}
	.st139{fill:#467A97;}
	.st140{fill:#95C11F;}
	.st141{fill:#1D71B8;}
	.st142{fill:#2FAC66;}
	.st143{fill:#00A19A;}
	.st144{fill:#0B3958;}
	.st145{fill:#3AAA35;}
	.st146{fill:#1B4B64;}
	.st147{fill:none;}
	.st148{fill:#EBD53E;}
	.st149{fill:#EFF0F1;}
	.st150{fill:#F1BE00;}
	.st151{fill:#DFA600;}
	.st152{fill:#DAEEEE;}
	.st153{fill:#E9E7EA;}
	.st154{fill:#DE0B15;}
	.st155{fill:#AA1918;}
	.st156{fill:#76232F;}
	.st157{fill:#DC0C1F;}
	.st158{fill:#DC3015;}
	.st159{fill:#AA7F47;}
	.st160{fill:#DAAC71;}
	.st161{fill:#342D45;}
	.st162{fill:#F6F5F9;}
	.st163{fill:#1B1814;}
	.st164{fill:#E03D13;}
	.st165{fill:#BF2B17;}
	.st166{fill:#F5F0EF;}
	.st167{fill:#F19500;}
	.st168{fill:#D8870D;}
	.st169{fill:#31AD71;}
	.st170{fill:#2F7C55;}
	.st171{fill:#1A1814;}
	.st172{fill:#4B4845;}
	.st173{fill:#FAEEF0;}
	.st174{fill:#D19B09;}
	.st175{fill:#F1D7B5;}
	.st176{fill:#FCFCFD;}
	.st177{fill:#93BEC8;}
	.st178{fill:#D8D3D2;}
	.st179{fill:#4D4843;}
	.st180{fill:#4EABB8;}
	.st181{fill:#383835;}
	.st182{fill:#D5DADB;}
	.st183{fill:#9EBABB;}
	.st184{fill:#B4181C;}
	.st185{fill:#DD6A10;}
	.st186{fill:#F0F0F1;}
	.st187{fill:#753811;}
	.st188{fill:#DB0D1B;}
	.st189{fill:#DA213C;}
	.st190{fill:#BCDBB6;}
	.st191{fill:#9A9999;}
	.st192{fill:#4DA354;}
	.st193{fill:#DBBC9A;}
	.st194{fill:#A48A7B;}
	.st195{fill:#C5C2C2;}
	.st196{fill:#CC1417;}
	.st197{fill:#44403D;}
	.st198{fill:#F8D000;}
	.st199{fill:#974493;}
	.st200{fill:#F0811A;}
	.st201{fill:#58B034;}
	.st202{fill:#5BC4E9;}
	.st203{fill:#F8D71A;}
	.st204{fill:#E52921;}
	.st205{fill:#DDAE76;}
	.st206{fill:#F9DCBB;}
	.st207{fill:#CC6F22;}
	.st208{fill:#9CCDC5;}
	.st209{fill:#49998B;}
	.st210{fill:#9F3148;}
	.st211{fill:#DDA519;}
	.st212{fill:#EDC4A2;}
	.st213{fill:#5F3B17;}
	.st214{fill:#191517;}
	.st215{fill:#D9A67E;}
	.st216{fill:#C47713;}
	.st217{fill:#A91917;}
	.st218{fill:#DBC8CE;}
	.st219{fill:#9C6E80;}
	.st220{fill:#BC738E;}
	.st221{fill:#1E1E1C;}
	.st222{fill:#EAEAEA;}
	.st223{fill:#4E4D4D;}
	.st224{fill:#E7E6E6;}
	.st225{fill:#FED063;}
	.st226{fill:#FCBF0A;}
	.st227{fill:#AA5A9F;}
	.st228{fill:#833081;}
	.st229{fill:#882C87;}
	.st230{fill:#A4B639;}
	.st231{fill:#B9C95E;}
	.st232{fill:#D690BB;}
	.st233{fill:#AB6F97;}
</style>
<g>
	<g>
		<g id="w0iE0u_1_">
			<g>
				<path class="st96" d="M144.7,209.3c-0.5-4.2-1.3-8.3-1.5-12.4c-0.4-6.7,0.7-13.1,3.9-19.1c4.6-8.8,12-13.3,21.7-14.6
					c8.3-1.1,16.4-0.4,24.6,1.3c0.3,0.1,0.6,0.1,0.9,0.2c0.3,0,0.6,0.1,1.1,0.1c-0.2-1.3-0.4-2.5-0.6-3.7c-1-6.7-1.8-13.5-0.6-20.3
					c1.5-8.9,6.7-15.4,13.9-20.5c5.7-4.1,12.1-6.2,18.8-7.8c11.6-2.8,23.4-3.2,35.3-1.9c6.6,0.7,13,2,19.3,4
					c12,3.8,19.3,12,22.7,23.9c2.5,8.7,2.7,17.5,1.4,26.4c-0.1,0.5-0.1,1.1-0.2,1.6c-0.1,0.5-0.2,1-0.3,1.7c1.2-0.3,2.3-0.6,3.4-0.9
					c7.8-2.1,15.8-3.5,23.9-3.7c7.4-0.2,14.6,1.3,21.1,5.1c6.2,3.6,10.2,9,12.4,15.8c2.9,8.8,3.5,17.9,2.1,27.1
					c-1.4,10-7.2,16.9-15.6,21.9c-7.6,4.5-15.9,7.1-24.6,8.6c-10.7,1.9-21.4,2.4-32.2,2.4c-18-0.1-36-0.5-54-0.6
					c-15.9-0.1-31.8-0.1-47.7-0.2c-5.2,0-10.4-0.2-15.5-1.4c-8.5-2-15.5-6.4-21.5-12.6c-0.7-0.7-1.2-0.9-2.3-0.8
					c-3.6,0.4-7.1,0.7-10.7,0.7c-2.7,0-4.7-1.6-5.7-4.2c-1.2-3-1.5-6.1-1.1-9.3c0.5-3.7,2.9-5.9,6.8-6.6
					C144.2,209.4,144.6,209.3,144.7,209.3z M272.1,174.4C272.1,174.4,272.1,174.4,272.1,174.4c1.1,0.1,2.2,0.1,3.3,0.1
					c3.4-0.1,6.9,0.1,10.3-0.5c4.3-0.7,7.9-2.9,9.3-7.4c1.7-5.6,2.1-11.4,0.5-17.1c-4.2-14.1-13.2-24-26.4-30.2
					c-3.3-1.5-6.8-2.5-10.6-2.2c-4.9,0.4-8.8,4.3-8.9,9.2c0,1.1,0,2.3,0.1,3.4c0.4,6.8,0.7,13.6,1.1,20.3c0.3,5.8,0.5,11.6,0.9,17.4
					c0.3,4.3,2.7,6.7,7,6.9C263,174.5,267.6,174.4,272.1,174.4z M245.5,143.4c-0.3-5.3-0.4-10.9-0.9-16.5c-0.4-5.1-3.8-7.9-9-7.4
					c-2,0.2-4,0.8-5.9,1.6c-11.8,5.2-19.8,14-24.9,25.7c-2,4.6-3.2,9.3-2.5,14.4c0.9,6.4,3.7,9.9,9.7,11.2c7,1.6,14.2,1.9,21.3,1.5
					c6.2-0.3,10.1-4.1,10.7-10.3C244.6,157,245,150.3,245.5,143.4z M190.4,227.5c0.1-0.2,0.1-0.4,0.2-0.5
					c3.5-6.4,7.2-12.7,10.5-19.1c1.6-3,2.9-6.3,3.9-9.5c0.9-2.9-0.9-4.6-3.9-4.3c-4.6,0.4-9.2,0.6-13.7,1.1
					c-3.7,0.4-7.3,1.1-10.9,1.7c-1.1,0.2-2.2,0.8-2,2.2c0.2,1.3,1.4,1.7,2.5,1.7c1.5,0,3-0.2,4.5-0.4c3-0.3,6-0.6,9.2-0.8
					c-0.2,0.5-0.3,0.8-0.4,1c-4.2,8.6-8.4,17.1-12.5,25.7c-0.5,0.9-1,1.9-1.1,2.9c-0.2,4.4,0.9,8,6.7,5.9c3.9-1.4,7.9-2.4,11.9-3.4
					c2.8-0.7,5.7-0.9,8.6-1.4c1.2-0.2,2.1-0.9,1.9-2.3c-0.2-1.3-1.2-1.8-2.4-1.8c-1.3,0-2.7,0.2-4,0.3
					C196.4,226.7,193.5,227.1,190.4,227.5z M238.6,199.1c-0.7,0.9-1.2,1.5-1.7,2.1c-4.4,4.1-8.9,8.2-13.4,12.2c-1.1,1-2.4,2-1.9,3.7
					c0.4,1.7,1.8,2.2,3.3,2.6c0.3,0.1,0.6,0.1,0.9,0.2c2.6,0.5,5.1,1,7.7,1.3c3.2,0.5,6.4,0.9,9.6,1.3c1.1,0.1,1.9-0.3,2.1-1.5
					c0.2-1.1-0.5-1.7-1.5-2c-1.3-0.4-2.6-0.7-3.9-1c-1.5-0.3-3-0.6-4.4-0.9c-0.1-0.2-0.2-0.3-0.2-0.5c4.6-4.5,9.3-8.9,13.8-13.4
					c0.9-0.8,1.5-2,1.9-3.2c0.6-1.6-0.3-3.3-1.9-3.8c-0.5-0.2-1-0.3-1.5-0.3c-5.3-0.8-10.6-1.7-16-2.4c-1.7-0.2-3.5-0.2-5.2,0
					c-0.6,0.1-1.5,1-1.4,1.5c0,0.6,0.8,1.4,1.4,1.8c0.5,0.3,1.2,0.3,1.9,0.4C231.6,198,234.9,198.5,238.6,199.1z M272.5,209.7
					c-0.4,1.2-0.7,2.1-1,3c-1.6,3.9-3.2,7.8-4.7,11.8c-0.9,2.4,0.6,4.5,3,4c5.4-1.1,10.2-3.5,15.1-5.9c0.5-0.2,0.8-1.3,0.7-1.8
					c-0.1-0.4-1-0.7-1.6-0.8c-0.4-0.1-1,0.2-1.4,0.3c-1.4,0.5-2.8,1-4.4,1.5c0.1-0.5,0.2-0.8,0.3-1.1c0.8-2.8,1.6-5.5,2.3-8.3
					c0.6-2.3,1.2-4.6,0.5-6.9c-0.5-1.7-1.8-2.7-3.4-2.2c-4.4,1.4-8.7,2.8-13,4.3c-0.9,0.3-1.8,0.9-1.5,2.1c0.3,1.2,1.3,1.3,2.4,1.1
					C267.9,210.4,270.1,210.1,272.5,209.7z M309,206.9c0-0.2,0-0.3,0.1-0.3c0.9-1.4,1.9-2.7,2.7-4.1c0.8-1.3,1.5-2.6,2-4
					c0.6-1.6-0.1-3.3-1.5-3.6c-3.2-0.7-6.4-1-9.6-0.2c-0.6,0.2-1.1,1-1.6,1.5c0.5,0.5,0.9,1.3,1.5,1.6c1.2,0.5,2.5,0.7,4.2,1.1
					c-2.2,2.5-4.3,4.8-6.5,7.1c-1.6,1.8-1.2,3.6,1.2,4.1c1.7,0.4,3.5,0.4,5.2,0.5c1.2,0.1,2.5,0,3.7-0.2c0.5-0.1,1.3-0.8,1.3-1.3
					c0-0.5-0.6-1.2-1-1.6C310.2,207.1,309.6,207.1,309,206.9z M333.1,211.1c-0.2,1-0.4,1.9-0.6,2.8c-0.2,1-0.5,1.9-0.6,2.9
					c-0.2,2.4,1.5,3.7,3.6,2.6c1.9-1,3.8-2.2,5.6-3.4c0.9-0.6,1.4-1.4,0.8-2.4c-0.7-1.1-1.7-0.8-2.6-0.3c-0.9,0.6-1.9,1.1-3,1.8
					c0.1-0.8,0.2-1.3,0.2-1.7c0.2-1.2,0.5-2.5,0.6-3.7c0.2-2-1.3-3.4-2.8-2.8c-1.9,0.8-3.6,1.9-5.4,2.9c-0.4,0.2-0.7,1.1-0.5,1.5
					c0.2,0.4,1,0.7,1.4,0.7C330.9,211.9,332,211.5,333.1,211.1z"/>
				<path class="st127" d="M122.1,204.3c4.4,2.2,7.2,5.8,8.6,10.6c1.6,5.7,0.1,10.1-4.7,13.5c-3,2.2-6.5,3.2-10.1,4
					c-1.4,0.3-2,1-2.5,2.3c-2.7,8.9-12.1,13.6-20.6,10.4c-2.9-1.1-5.1-2.9-6.9-5.3c-1.7-2.3-3.3-4.6-4.9-7c-0.6-0.9-1.2-1-2.2-0.8
					c-2.8,0.5-5.6,1.3-8.4,1.1c-5.3-0.4-9.5-2.9-11.3-8.3c-0.4-1.1-1-1.9-2-2.6c-2.7-1.8-3.7-4.7-2.9-7.9c1.4-5.8,7.3-9.8,13.3-8.9
					c1.8,0.3,3.6,0.7,5.4,1.2c1,0.3,1.4,0,1.8-0.8c2.2-4.5,5.4-8.2,10.3-9.6c2.6-0.8,5.4-0.9,8.1-1.1c1.3-0.1,2-0.4,2.6-1.5
					c2-3.9,4.7-7.4,8.7-9.4c1.8-0.9,3.9-1.7,5.9-2c9.6-1.2,13.6,6.9,13.1,13.2C123.3,198.3,122.6,201.3,122.1,204.3z"/>
			</g>
		</g>
		<g>
			<g>
				<circle class="st86" cx="203.2" cy="255.8" r="21.7"/>
				<circle class="st127" cx="203.2" cy="255.8" r="12.4"/>
			</g>
			<g>
				<circle class="st86" cx="296.5" cy="255.8" r="21.7"/>
				<circle class="st127" cx="296.5" cy="255.8" r="12.4"/>
			</g>
		</g>
		<path class="st124" d="M367.6,196.5l-4.8,1.9c-3.3,1.3-7.1-0.3-8.5-3.6l-7-17.2c-1.3-3.3,0.3-7.1,3.6-8.5l4.8-1.9
			c3.3-1.3,7.1,0.3,8.5,3.6l7,17.2C372.5,191.4,370.9,195.2,367.6,196.5z"/>
	</g>
	<g>
		<g>
			<path class="st96" d="M141.3,297.3c1.4,2.5,2.1,6,2.1,10.2c0,4.2-0.7,7.8-2.1,10.2c-1.4,2.5-3.4,3.8-5.6,3.8
				c-4.1,0-8.3-4.8-8.3-14.1c0-9.2,4.2-14.1,8.3-14.1C137.9,293.5,139.9,294.8,141.3,297.3z M140.3,307.5c0-4.7-0.9-7.3-1.7-8.7
				c-0.8-1.5-1.8-2.3-2.9-2.3c-1.1,0-2.3,0.9-3.3,2.5c-1.2,2.1-1.9,5.1-1.9,8.5s0.7,6.4,1.9,8.5c0.9,1.6,2.1,2.5,3.3,2.5
				c1.1,0,2.1-0.8,2.9-2.3C139.4,314.8,140.3,312.2,140.3,307.5z"/>
			<path class="st96" d="M165,311c0.6,5.5,0.5,10.2,0.5,10.4l-3.1-0.1c0.1-5.1-0.5-19.3-4.7-23.3c-0.7-0.7-1.5-1-2.4-1
				c-1.7,0.1-4.7,1.8-6,11.8c-0.3,2.1-0.4,4.1-0.5,5.9v6.7l-3.1,0.1c0-0.2-0.2-3.1,0-6.9v-21h3.1v5.2c1.5-3.1,3.6-4.7,6.3-4.8
				c1.8-0.1,3.3,0.5,4.7,1.8C162.5,298.3,164.2,303.4,165,311z"/>
		</g>
		<g>
			<path class="st127" d="M180.5,321.8h-3.1v-28.2h3.1v7c2.5-6.2,5.7-7.1,7.4-7.1c0,0,0,0,0,0c4.1,0,7.1,4.9,7.1,12l-3.1,0
				c0-5.6-2.1-8.9-4.1-8.9c0,0,0,0,0,0C185,296.6,180.5,303.5,180.5,321.8z"/>
			<path class="st127" d="M211.3,297.3c1.4,2.5,2.1,6,2.1,10.2c0,4.2-0.7,7.8-2.1,10.2c-1.4,2.5-3.4,3.8-5.6,3.8
				c-4.1,0-8.3-4.8-8.3-14.1c0-9.2,4.2-14.1,8.3-14.1C208,293.5,210,294.8,211.3,297.3z M210.4,307.5c0-4.7-0.9-7.3-1.7-8.7
				c-0.8-1.5-1.8-2.3-2.9-2.3c-1.1,0-2.3,0.9-3.3,2.5c-1.2,2.1-1.9,5.1-1.9,8.5s0.7,6.4,1.9,8.5c0.9,1.6,2.1,2.5,3.3,2.5
				c1.1,0,2.1-0.8,2.9-2.3C209.4,314.8,210.4,312.2,210.4,307.5z"/>
			<path class="st127" d="M234.4,298l0,23.4l-3.1,0l0-5c-0.6,1.3-1.3,2.4-2.1,3.2c-1.3,1.3-2.8,2-4.5,2c-1.7,0-3.2-0.7-4.4-2
				c-2.4-2.6-3.9-7.8-4.3-15.5c-0.3-5.5,0-10.3,0-10.5l3.1,0.2c-0.4,5.2-0.4,19.5,3.5,23.7c0.7,0.7,1.3,1,2.2,1
				c0.8,0,1.5-0.3,2.2-1.1c3.2-3.3,4.1-12.7,4.3-19.2l0-4.6l3.1-0.1C234.4,293.8,234.4,295.5,234.4,298z"/>
			<path class="st127" d="M241.5,321.5v-19.3h-4.7V299h4.7v-5.4h3.1v5.4h4.7v3.1h-4.7v19.3H241.5z"/>
			<path class="st127" d="M268.9,314.7c-0.7,4.5-3.3,7.3-6.8,7.3c-0.1,0-0.1,0-0.2,0c-2.4-0.1-4.7-1.5-6.5-4.1
				c-1.9-2.7-3.1-6.5-3.5-10.9c-0.3-4,0.2-7.4,1.6-9.9c1.3-2.4,3.4-3.8,5.8-4c4.4-0.4,9.6,3.4,10.5,11.4l0.2,1.5l-14.8,2.2
				c0.9,6.9,4.1,10.6,6.9,10.7c1.9,0.1,3.4-1.7,3.9-4.7L268.9,314.7z M254.9,305.1l11.6-1.7c-0.8-3.8-3.2-7.2-6.4-7.2
				c-0.1,0-0.3,0-0.4,0c-1.4,0.1-2.6,1-3.4,2.5C255.3,300.3,254.8,302.5,254.9,305.1z"/>
		</g>
		<g>
			<path class="st96" d="M286.6,321.5v-19.3h-4.7V299h4.7v-5.4h3.1v5.4h4.7v3.1h-4.7v19.3H286.6z"/>
			<path class="st96" d="M310.7,297.3c1.4,2.5,2.1,6,2.1,10.2c0,4.2-0.7,7.8-2.1,10.2c-1.4,2.5-3.4,3.8-5.6,3.8
				c-4.1,0-8.3-4.8-8.3-14.1c0-9.2,4.2-14.1,8.3-14.1C307.3,293.5,309.3,294.8,310.7,297.3z M309.7,307.5c0-4.7-0.9-7.3-1.7-8.7
				c-0.8-1.5-1.8-2.3-2.9-2.3c-1.1,0-2.3,0.9-3.3,2.5c-1.2,2.1-1.9,5.1-1.9,8.5s0.7,6.4,1.9,8.5c0.9,1.6,2.1,2.5,3.3,2.5
				c1.1,0,2.1-0.8,2.9-2.3C308.8,314.8,309.7,312.2,309.7,307.5z"/>
		</g>
		<g>
			<path class="st124" d="M339.5,319.2c-1.2,1.8-3.1,2.8-5.4,2.9c-0.1,0-0.1,0-0.2,0c-1.8,0-3.9-0.5-6.1-1.6v1h-3.1v-27.7h3.1v12.1
				c4.3-3.3,7.6-1.7,9-0.6C340.7,308.1,342.2,315.2,339.5,319.2z M334.9,307.6c-1.4-1-3.8-1.4-7.1,2.4v6.9c2.6,1.4,7.3,3.4,9.2,0.5
				C338.7,314.8,337.6,309.6,334.9,307.6z"/>
			<path class="st124" d="M360.4,314.7c-0.7,4.5-3.3,7.3-6.8,7.3c-0.1,0-0.1,0-0.2,0c-2.4-0.1-4.7-1.5-6.5-4.1
				c-1.9-2.7-3.1-6.5-3.5-10.9c-0.3-4,0.2-7.4,1.6-9.9c1.3-2.4,3.4-3.8,5.8-4c4.4-0.4,9.6,3.4,10.5,11.4l0.2,1.5l-14.8,2.2
				c0.9,6.9,4.1,10.6,6.9,10.7c1.9,0.1,3.4-1.7,3.9-4.7L360.4,314.7z M346.4,305.1l11.6-1.7c-0.8-3.8-3.2-7.2-6.4-7.2
				c-0.1,0-0.3,0-0.4,0c-1.4,0.1-2.6,1-3.4,2.5C346.8,300.3,346.3,302.5,346.4,305.1z"/>
			<path class="st124" d="M374.9,321.4v-1c-2.3,1.1-4.3,1.6-6.1,1.6c-0.1,0-0.1,0-0.2,0c-2.4-0.1-4.2-1-5.4-2.8
				c-2.6-4-1.2-11.1,2.8-14.1c1.4-1,4.7-2.7,9,0.7v-12.1h3.1v27.7H374.9z M374.9,316.9V310c-3.4-3.9-5.7-3.5-7.1-2.4
				c-2.7,2-3.8,7.3-2.1,9.9C367.6,320.3,372.3,318.3,374.9,316.9z"/>
		</g>
	</g>
</g>
</svg>
